<svg width="15" height="15" viewBox="0 0 23.08 22" xmlns="http://www.w3.org/2000/svg" style="background:transparent">
    <g fill="none" fill-rule="evenodd">
        <path fill="" d="M0 0h23.08v22H0z"/>
        <g fill="#FFF" fill-rule="nonzero">
            <path d="M17.491 16.61a2.693 2.693 0 0 0-2.695 2.695A2.693 2.693 0 0 0 17.491 22a2.693 2.693 0 0 0 2.695-2.695c-.026-1.477-1.218-2.695-2.695-2.695zM22.233 3.757c-.052 0-.13-.026-.207-.026H5.7l-.26-1.736A2.32 2.32 0 0 0 3.136 0H1.037A1.04 1.04 0 0 0 0 1.037c0 .57.466 1.036 1.037 1.036h2.098c.13 0 .234.104.26.233L5 13.241a2.841 2.841 0 0 0 2.799 2.41h10.78c1.347 0 2.513-.958 2.798-2.28l1.684-8.422a1.024 1.024 0 0 0-.829-1.192zM10.883 19.176a2.68 2.68 0 0 0-2.669-2.566 2.71 2.71 0 0 0-2.59 2.799 2.656 2.656 0 0 0 2.642 2.565h.052c1.477-.078 2.643-1.321 2.565-2.798z"/>
        </g>
    </g>
</svg>