<svg width="7" height="9" viewBox="0 0 7 9" fill="none" xmlns="http://www.w3.org/2000/svg">
<path d="M5.85969 4.70401L3.49947 7.18315L1.13996 4.70401C0.878914 4.432 0.45656 4.432 0.195518 4.70401C-0.0651732 4.97894 -0.0651732 5.42307 0.195518 5.698L3.02778 8.67121C3.28882 8.94323 3.71153 8.94323 3.97187 8.67121L6.80448 5.698C7.06552 5.42307 7.06482 4.97894 6.80448 4.70401C6.54309 4.432 6.12074 4.432 5.85969 4.70401Z" fill="#4D4238"/>
<path d="M3.02778 4.2967C3.28882 4.56871 3.71153 4.56871 3.97187 4.2967L6.80448 1.32312C7.06552 1.04819 7.06482 0.603701 6.80448 0.328768C6.54344 0.0567519 6.12109 0.0567519 5.86004 0.328768L3.49982 2.80827L1.14031 0.328767C0.879265 0.0567516 0.45691 0.0567516 0.195868 0.328767C-0.0648227 0.6037 -0.0648227 1.04819 0.195868 1.32312L3.02778 4.2967Z" fill="#4D4238"/>
</svg>
